<?xml version="1.0" encoding="utf-8"?>
<!-- Generator: Adobe Illustrator 23.0.1, SVG Export Plug-In . SVG Version: 6.00 Build 0)  -->
<svg version="1.1" id="Ebene_1" xmlns="http://www.w3.org/2000/svg" xmlns:xlink="http://www.w3.org/1999/xlink" x="0px" y="0px"
	 viewBox="0 0 200 157.23" style="enable-background:new 0 0 200 157.23;" xml:space="preserve">
<style type="text/css">
	.st0{fill:#010101;}
</style>
<path class="st0" d="M200,26.94L173.09,0.02h-56.64L99.72,19.44c-7.05,7.64-15.49,11.5-24.88,12.82
	c-14.52,2.05-15.7-9.93-9.06-14.71C52,20.35,49.02,33.99,58.1,39.11c5.5,3.1,16.39,1.51,17.4,0.49c-3.42,2.55-9.22,6.77-20.95,6.26
	c-21.63-0.94-28.73-44.78,39.5-33.08C93.72,12.39,83.19,0,83.19,0H26.44c0,0-35.52,31.24,3.91,57.06
	c13.53,7.73,30.02,10.54,40.89,2.31c0,0-8.27,12.05-32.17,11.03C15.16,69.37,1.02,49.55,0,26.44v19.45c0,0,5.9,38.97,39.96,40.02
	c14.37-0.12,25.88-3.12,30.06-10.03c-2.28,4.22-8.54,13.74-19.37,15.43c-13.99,2.18-23.5-0.12-27.77-4.51l10.37,10.37
	c0,0,18.98,12.71,32.4-2.86c1.72-1.73-13.34,21.68-4.62,30.64l14.65,14.65c0,0-14.92-22.77,1.5-31.24c0,0-4.35,30.66,29.46,48.88
	l22.47-22.47c-3.41-4.58-7.18-11.66-9.15-16.93c-1.97-5.27-4.61-10.3-6.57-15.57c-0.99-2.67-0.98-4.15-3.27-5.99
	c-2.02-1.62-4.43-2.84-6.83-3.81c-2.17-0.88-4.62-1.19-6.89-1.7c-4.9-1.1-11.37-1.91-14.32-6.64c-2.95-4.71,3.44-7.3,4.31-11.18
	c0.19-0.85-0.07-1.82-0.43-2.6c-0.31-0.65-0.85-0.94-1.24-1.54c-0.49-0.75-0.44-1.54-0.08-2.32c0.74-1.64,2.13-2.14,3.85-1.94
	c-1.64-0.67-3.27-1.95-3.68-3.71c-0.39-1.65,0.3-2.9,1.86-3.34c1.52-0.43,2.97-1.9,3.75-3.25c0.8-1.37,0.19-1.95-0.63-3.12
	c-0.87-1.24-2.1-2.41-2.29-4c-0.19-1.68,1.59-2.46,2.91-2.99c1.85-0.74,3.85-1.08,5.64-1.95c1.26-0.61,2.42-1.21,3.58-1.99
	c0.6-0.41,1.13-0.9,1.73-1.31c0.25-0.17,1.6-1.21,1.78-1.21c-1.11-0.02-3.68-0.76-4.06-1.93c0.85,0.86,2.37,1.19,3.54,0.83
	c-1.87-0.19-2.82-0.96-4.07-2.15c1.21,1.11,3.73,2.28,5.15,1.23c-0.62,0.28-2.06-0.3-2.67-0.64c-0.73-0.41-1.34-1.1-1.73-1.84
	c1.73,1.36,3.22,2.12,5.5,1.63c1.13-2.72,1.51-5.7,2.76-8.38c1.19-2.55,2.67-5.45,4.52-7.57c2.02-2.29,3.57-4.03,6.19-5.68
	c5.97-3.75,13-5.31,19.79-6.83c0.28-0.06,1.49-0.32,3.08-0.64c-4.55,2.39-8.64,5.58-11.76,9.73c-3.27,4.34-5.12,9.33-5.32,14.74
	c-0.25,6.91,1.71,12.12,3.38,18.72c1.27,5.03,0.54,9.68-3.43,14.36c4.19-1.81,7.03-6.82,6.3-11.92c-0.8-5.58-3.29-11.14-3.04-19.09
	c-0.23,7.96,6.21,15.35,5.63,23.11c-0.38,5.01-4.41,15.29-10.58,13.89c-4.89-1.1-10.29-8.33-0.98-10.47c0,0-6.78-2.2-10.15,0.37
	c-6.04,4.62-4.21,16.48,5.6,21.76c7.43,4,18.76,5.69,26.1-0.34c-4.66,4.98-6.51,12.09-6.27,18.92c0.21,6.08,3.09,10.4,1.86,16.56
	c-0.79,3.99-3.23,5.83-6.03,4.58c-2.51-1.12-3.03-4.52,0.97-6.38c-13.2,0.58-8.7,13.21,0.99,15.2L200,63.87V26.94z"/>
</svg>
